name C:\Users\u0101727\Documents\MyRepositories\upper-imu-dc\Results\main_tracking\Case_42\FLX01_linearAccelerations_groundFrame.mot
datacolumns 4
datarows 47
range 5.01000000 5.47000000
endheader 
time	radius_imu_x	radius_imu_y	radius_imu_z	
          5.01000000	         -6.67525401	         10.55657993	          0.88230125	
          5.02000000	         -6.79371847	         10.61389213	          0.62743110	
          5.03000000	         -7.07004044	         10.83472810	          0.03191208	
          5.04000000	         -7.13986503	         10.72938673	         -0.00807275	
          5.05000000	         -7.22212498	         10.77412254	         -0.30748582	
          5.06000000	         -7.27826119	         10.83044183	         -0.62705489	
          5.07000000	         -7.31222468	         10.88172258	         -0.95681527	
          5.08000000	         -7.32477812	         10.92704582	         -1.29435261	
          5.09000000	         -7.31747308	         10.96083372	         -1.63543897	
          5.10000000	         -7.29314441	         10.97853773	         -1.97594898	
          5.11000000	         -7.25561549	         10.97459548	         -2.31019621	
          5.12000000	         -7.21264342	         10.94274950	         -2.63726109	
          5.13000000	         -7.16859579	         10.87351847	         -2.93716442	
          5.14000000	         -7.15049837	         10.76779822	         -3.25996650	
          5.15000000	         -7.18662507	         10.53781675	         -3.48876681	
          5.16000000	         -7.39415679	         10.67990772	         -4.24608319	
          5.17000000	         -7.59227409	         10.32185323	         -4.02008274	
          5.18000000	         -7.65547852	         10.25682994	         -4.21129443	
          5.19000000	         -7.66512689	         10.22107138	         -4.40794282	
          5.20000000	         -7.64952284	         10.21137261	         -4.59622608	
          5.21000000	         -7.60712808	         10.21798838	         -4.77649719	
          5.22000000	         -7.54283606	         10.23501855	         -4.94669534	
          5.23000000	         -7.45958087	         10.25775194	         -5.10703764	
          5.24000000	         -7.36030655	         10.28276290	         -5.25833116	
          5.25000000	         -7.24745498	         10.30751784	         -5.40189159	
          5.26000000	         -7.12309856	         10.33016345	         -5.53907913	
          5.27000000	         -6.98897094	         10.34936022	         -5.67100360	
          5.28000000	         -6.84655165	         10.36417842	         -5.79832481	
          5.29000000	         -6.69713529	         10.37402878	         -5.92120651	
          5.30000000	         -6.54188326	         10.37860953	         -6.03939729	
          5.31000000	         -6.38185530	         10.37785392	         -6.15237144	
          5.32000000	         -6.21802414	         10.37186700	         -6.25946243	
          5.33000000	         -6.05127499	         10.36085277	         -6.35997065	
          5.34000000	         -5.88239784	         10.34504819	         -6.45325547	
          5.35000000	         -5.71208463	         10.32468440	         -6.53880965	
          5.36000000	         -5.54093738	         10.29998798	         -6.61630660	
          5.37000000	         -5.36948074	         10.27121980	         -6.68562417	
          5.38000000	         -5.19816532	         10.23873051	         -6.74685242	
          5.39000000	         -5.02735581	         10.20300616	         -6.80028234	
          5.40000000	         -4.85731155	         10.16468887	         -6.84637355	
          5.41000000	         -4.68816906	         10.12457581	         -6.88571552	
          5.42000000	         -4.51993212	         10.08360554	         -6.91899538	
          5.43000000	         -4.35246848	         10.04283416	         -6.94696241	
          5.44000000	         -4.18551066	         10.00339506	         -6.97036392	
          5.45000000	         -4.01865954	          9.96643714	         -6.98984492	
          5.46000000	         -3.85139238	          9.93305191	         -7.00583935	
          5.47000000	         -3.68308165	          9.90421605	         -7.01849988	
